#!OML:ASF X:\für Bonn\!DataBase\2005_08_12_Daniel\c3d\Daniel.ASF
:FULLY-SPECIFIED
:DEGREES
439
root 19.6885 1.36557 0.631963 -1689.65 259.755 134.487
lowerback 25.9001 -3.72166 2.80456
upperback 6.91952 -4.91692 -3.10938
thorax -7.14733 -2.67442 -3.44889
lowerneck -10.6382 1.16305 -4.9597
upperneck 1.02818 2.05591 1.10938
head 2.10448 0.995138 1.32051
rclavicle 7.39479e-014 -9.8796e-014
rhumerus -407.055 -16.1358 296.9
rradius 12.5024
rwrist 64.5205
rhand -8.89108 738.858
rfingers 7.12502
rthumb 17.0513 709.586
lclavicle 7.39479e-014 -9.8796e-014
lhumerus -586.858 157.433 -484.939
lradius 18.0959
lwrist -50.9071
lhand -1.90535 -725.311
lfingers 7.12502
lthumb 23.7642 23.2397
rfemur -504.52 -195.338 566.171
rtibia 8.26944e-014
rfoot -19.5896 -35.7785
rtoes 31.7509
lfemur 13.858 701.328 -32.0454
ltibia 40.3336
lfoot 150.972 564.211
ltoes 23.921
440
root 19.6838 1.36446 0.634469 -1689.47 259.843 134.296
lowerback 25.9115 -3.74059 2.84153
upperback 6.9218 -4.92955 -3.0658
thorax -7.15023 -2.68131 -3.41726
lowerneck -10.7247 1.18104 -4.92386
upperneck 1.17877 2.08247 1.10921
head 2.16997 1.0069 1.31898
rclavicle -9.14409e-014 1.2206e-013
rhumerus -406.869 -15.6613 296.619
rradius 12.5291
rwrist 64.068
rhand -8.97504 738.884
rfingers 7.12502
rthumb 16.9705 709.606
lclavicle -9.14409e-014 1.2206e-013
lhumerus -586.885 157.157 -485.143
lradius 18.0203
lwrist -51.1371
lhand -1.88035 -725.329
lfingers 7.12502
lthumb 23.7882 23.2183
rfemur -504.601 -194.756 565.788
rtibia -7.95139e-015
rfoot -19.5731 -35.7397
rtoes 31.6276
lfemur 14.9906 698.42 -33.6848
ltibia 39.9635
lfoot 146.859 563.82
ltoes 24.6124
441
root 19.6734 1.36155 0.636937 -1689.37 259.944 134.196
lowerback 25.9427 -3.74813 2.86607
upperback 6.90564 -4.92826 -3.01004
thorax -7.18026 -2.68106 -3.36812
lowerneck -10.7732 1.20599 -4.87743
upperneck 1.2995 2.11566 1.07531
head 2.21862 1.0212 1.30388
rclavicle -3.89618e-014 5.5374e-014
rhumerus -406.72 -15.2814 296.451
rradius 12.5223
rwrist 63.7273
rhand -9.04435 738.94
rfingers 7.12502
rthumb 16.9037 709.656
lclavicle -3.89618e-014 5.5374e-014
lhumerus -586.945 156.867 -485.359
lradius 17.9332
lwrist -51.4576
lhand -1.92966 -725.389
lfingers 7.12502
lthumb 23.7409 23.1643
rfemur -504.678 -194.196 565.407
rtibia -6.36111e-015
rfoot -19.8631 -35.6259
rtoes 31.6797
lfemur 16.361 695.287 -35.6516
ltibia 39.67
lfoot 142.224 562.894
ltoes 24.9792
442
root 19.6591 1.35777 0.639956 -1689.35 260.005 134.173
lowerback 25.9568 -3.7545 2.84287
upperback 6.90556 -4.94002 -2.9651
thorax -7.18252 -2.68697 -3.3006
lowerneck -10.8683 1.23372 -4.8447
upperneck 1.43163 2.15511 1.07561
head 2.27935 1.03942 1.30365
rclavicle -7.87187e-014 1.56481e-014
rhumerus -406.538 -14.8071 296.187
rradius 12.5625
rwrist 63.3402
rhand -9.02953 738.961
rfingers 7.12502
rthumb 16.918 709.678
lclavicle -7.87187e-014 1.56481e-014
lhumerus -586.987 156.621 -485.509
lradius 17.8532
lwrist -51.6926
lhand -2.00631 -725.456
lfingers 7.12502
lthumb 23.6673 23.1067
rfemur -504.747 -193.638 564.981
rtibia 8.74653e-014
rfoot -20.0295 -35.6096
rtoes 31.7165
lfemur 17.901 692.304 -37.7642
ltibia 39.4192
lfoot 137.673 561.387
ltoes 25.3907
443
root 19.6431 1.35375 0.642988 -1689.4 260.061 134.197
lowerback 26.0068 -3.75024 2.83038
upperback 6.89791 -4.93492 -2.93336
thorax -7.21156 -2.68478 -3.25738
lowerneck -10.917 1.25484 -4.79538
upperneck 1.55606 2.18184 1.07176
head 2.32965 1.05168 1.29765
rclavicle -8.74653e-015 -1.92324e-014
rhumerus -406.426 -14.472 296.024
rradius 12.5704
rwrist 63.0514
rhand -9.00558 738.986
rfingers 7.12502
rthumb 16.9411 709.705
lclavicle -8.74653e-015 -1.92324e-014
lhumerus -587.025 156.405 -485.667
lradius 17.7682
lwrist -51.9985
lhand -2.10961 -725.473
lfingers 7.12502
lthumb 23.5683 23.1032
rfemur -504.769 -193.087 564.55
rtibia 1.90833e-014
rfoot -20.4157 -35.544
rtoes 31.9306
lfemur 19.4679 689.843 -39.6901
ltibia 39.2029
lfoot 133.746 559.503
ltoes 25.839
444
root 19.6299 1.34961 0.644581 -1689.56 260.1 134.356
lowerback 26.0337 -3.73019 2.74833
upperback 6.89059 -4.92751 -2.89867
thorax -7.2233 -2.6806 -3.17299
lowerneck -10.9788 1.28563 -4.65074
upperneck 1.67819 2.21226 1.00312
head 2.38255 1.06434 1.25402
rclavicle 4.96962e-014 -6.18531e-014
rhumerus -406.29 -14.0361 295.767
rradius 12.6164
rwrist 62.6856
rhand -8.97963 738.951
rfingers 7.12502
rthumb 16.966 709.672
lclavicle 4.96962e-014 -6.18531e-014
lhumerus -587.061 156.21 -485.786
lradius 17.6945
lwrist -52.2318
lhand -2.22467 -725.466
lfingers 7.12502
lthumb 23.4579 23.1242
rfemur -504.811 -192.558 564.083
rtibia -1.59028e-015
rfoot -20.9616 -35.4829
rtoes 32.3056
lfemur 20.712 688.233 -41.0025
ltibia 39.0107
lfoot 130.9 557.621
ltoes 26.1509
445
root 19.6203 1.34558 0.646601 -1689.84 260.132 134.641
lowerback 26.0633 -3.70381 2.66035
upperback 6.87513 -4.91332 -2.87071
thorax -7.24517 -2.67285 -3.09451
lowerneck -11.0245 1.32136 -4.50233
upperneck 1.79584 2.24786 0.933564
head 2.43103 1.0797 1.20938
rclavicle 3.18055e-015 2.35933e-014
rhumerus -406.137 -13.5267 295.453
rradius 12.6314
rwrist 62.1992
rhand -8.95809 738.937
rfingers 7.12502
rthumb 16.9868 709.66
lclavicle 3.18055e-015 2.35933e-014
lhumerus -587.099 156.017 -485.909
lradius 17.6012
lwrist -52.5258
lhand -2.37395 -725.416
lfingers 7.12502
lthumb 23.3147 23.1925
rfemur -504.842 -192.051 563.595
rtibia -1.59028e-015
rfoot -21.5838 -35.4545
rtoes 32.7091
lfemur 21.5592 687.426 -41.6755
ltibia 38.8393
lfoot 128.954 556.066
ltoes 26.1663
446
root 19.6147 1.34237 0.647029 -1690.06 260.153 134.847
lowerback 26.1076 -3.68888 2.58528
upperback 6.87557 -4.91216 -2.84746
thorax -7.25898 -2.67209 -3.02408
lowerneck -11.0876 1.34587 -4.43899
upperneck 1.89954 2.27787 0.909543
head 2.47751 1.09315 1.19447
rclavicle -3.18055e-014 7.57991e-014
rhumerus -406.008 -13.1943 295.275
rradius 12.6376
rwrist 61.9946
rhand -8.9314 738.949
rfingers 7.12502
rthumb 17.0125 709.674
lclavicle -3.18055e-014 7.57991e-014
lhumerus -587.135 155.876 -485.98
lradius 17.5431
lwrist -52.754
lhand -2.52525 -725.383
lfingers 7.12502
lthumb 23.1695 23.2431
rfemur -504.83 -191.534 563.094
rtibia -4.92986e-014
rfoot -22.5268 -35.2697
rtoes 33.3088
lfemur 21.8818 687.543 -41.4943
ltibia 38.6979
lfoot 128.078 555.144
ltoes 26.0787
447
root 19.6147 1.33943 0.646014 -1690.33 260.153 135.119
lowerback 26.1333 -3.66781 2.49535
upperback 6.86803 -4.90734 -2.83624
thorax -7.2722 -2.66903 -2.96034
lowerneck -11.1581 1.37191 -4.32756
upperneck 2.02928 2.30639 0.842936
head 2.53502 1.10455 1.15759
rclavicle -1.90833e-014 4.9075e-014
rhumerus -405.925 -12.9697 295.155
rradius 12.661
rwrist 61.915
rhand -8.89289 739.002
rfingers 7.12502
rthumb 17.0495 709.73
lclavicle -1.90833e-014 4.9075e-014
lhumerus -587.186 155.649 -486.132
lradius 17.452
lwrist -53.1441
lhand -2.72579 -725.35
lfingers 7.12502
lthumb 22.9771 23.301
rfemur -504.835 -191.021 562.57
rtibia 1.11319e-014
rfoot -23.4981 -35.1153
rtoes 33.7632
lfemur 21.7262 688.354 -40.6472
ltibia 38.588
lfoot 127.926 554.873
ltoes 26.2631
448
root 19.6157 1.33735 0.644454 -1690.68 260.164 135.452
lowerback 26.1696 -3.64578 2.4114
upperback 6.86453 -4.89972 -2.82219
thorax -7.28613 -2.66481 -2.89743
lowerneck -11.2273 1.38594 -4.32554
upperneck 2.14926 2.32859 0.873882
head 2.58786 1.11547 1.17145
rclavicle 3.97569e-016 2.40032e-014
rhumerus -405.82 -12.7168 295.01
rradius 12.6644
rwrist 61.7766
rhand -8.83581 739.032
rfingers 7.12502
rthumb 17.1045 709.765
lclavicle 3.97569e-016 2.40032e-014
lhumerus -587.308 155.325 -486.365
lradius 17.4013
lwrist -53.648
lhand -2.89923 -725.339
lfingers 7.12502
lthumb 22.8107 23.3321
rfemur -504.811 -190.519 562.059
rtibia -1.04958e-013
rfoot -24.5872 -34.8565
rtoes 34.25
lfemur 21.2448 689.766 -39.2677
ltibia 38.5197
lfoot 128.316 555.109
ltoes 26.6343
449
root 19.6199 1.33483 0.642829 -1690.98 260.182 135.761
lowerback 26.1913 -3.62263 2.33359
upperback 6.86497 -4.88844 -2.79815
thorax -7.28766 -2.65876 -2.82906
lowerneck -11.2791 1.40159 -4.29941
upperneck 2.21725 2.35036 0.849526
head 2.6204 1.12474 1.1619
rclavicle -1.19271e-014 5.65356e-014
rhumerus -405.733 -12.5761 294.952
rradius 12.6859
rwrist 61.8264
rhand -8.83733 739.052
rfingers 7.12502
rthumb 17.103 709.785
lclavicle -1.19271e-014 5.65356e-014
lhumerus -587.386 155.055 -486.532
lradius 17.3326
lwrist -54.1091
lhand -3.09274 -725.321
lfingers 7.12502
lthumb 22.625 23.3731
rfemur -504.805 -190.01 561.564
rtibia -3.02153e-014
rfoot -25.7272 -34.594
rtoes 34.5928
lfemur 20.6368 691.381 -37.7243
ltibia 38.4974
lfoot 128.795 555.661
ltoes 26.8713
450
root 19.6241 1.33264 0.640454 -1691.43 260.175 136.195
lowerback 26.2547 -3.593 2.2197
upperback 6.84215 -4.87817 -2.78736
thorax -7.3346 -2.65267 -2.75157
lowerneck -11.348 1.41957 -4.24923
upperneck 2.35869 2.37466 0.820177
head 2.68145 1.1347 1.14798
rclavicle -5.4467e-014 8.44214e-015
rhumerus -405.712 -12.5793 295.03
rradius 12.685
rwrist 62.0877
rhand -8.81238 739.071
rfingers 7.12502
rthumb 17.127 709.806
lclavicle -5.4467e-014 8.44214e-015
lhumerus -587.522 154.819 -486.733
lradius 17.2989
lwrist -54.5192
lhand -3.24418 -725.31
lfingers 7.12502
lthumb 22.4796 23.4016
rfemur -504.768 -189.514 561.042
rtibia 4.77083e-015
rfoot -26.9155 -34.2996
rtoes 34.9124
lfemur 19.9382 693.262 -36.0659
ltibia 38.5253
lfoot 129.553 556.512
ltoes 27.0867
451
root 19.6294 1.33048 0.637177 -1691.84 260.197 136.611
lowerback 26.2807 -3.55799 2.13394
upperback 6.83639 -4.85326 -2.76658
thorax -7.34404 -2.63965 -2.6864
lowerneck -11.3878 1.42727 -4.24127
upperneck 2.42448 2.38724 0.809566
head 2.71117 1.13983 1.14543
rclavicle -5.68524e-014 8.60986e-015
rhumerus -405.633 -12.4377 294.956
rradius 12.6792
rwrist 62.1327
rhand -8.80461 739.115
rfingers 7.12502
rthumb 17.1345 709.85
lclavicle -5.68524e-014 8.60986e-015
lhumerus -587.563 154.638 -486.859
lradius 17.2304
lwrist -54.8766
lhand -3.32265 -725.29
lfingers 7.12502
lthumb 22.4043 23.4312
rfemur -504.745 -189.021 560.553
rtibia 4.77083e-015
rfoot -28.1896 -33.9447
rtoes 35.1689
lfemur 19.0854 695.535 -34.1043
ltibia 38.6128
lfoot 130.759 557.63
ltoes 27.179
